<?xml version="1.0" encoding="UTF-8" standalone="no"?>
<!-- Created with Inkscape (http://www.inkscape.org/) -->

<svg
   width="1024"
   height="1024"
   viewBox="0 0 1024 1024"
   version="1.1"
   id="svg1"
   xml:space="preserve"
   xmlns:xlink="http://www.w3.org/1999/xlink"
   xmlns="http://www.w3.org/2000/svg"
   xmlns:svg="http://www.w3.org/2000/svg"><defs
     id="defs1"><linearGradient
       id="linearGradient53"><stop
         style="stop-color:#fbfb00;stop-opacity:1;"
         offset="0.19306931"
         id="stop49" /><stop
         style="stop-color:#95ff41;stop-opacity:1;"
         offset="0.34158418"
         id="stop50" /><stop
         style="stop-color:#5ce7ff;stop-opacity:1;"
         offset="0.56188118"
         id="stop51" /><stop
         style="stop-color:#33ffd9;stop-opacity:1;"
         offset="0.76485145"
         id="stop52" /><stop
         style="stop-color:#99e3f5;stop-opacity:1;"
         offset="1"
         id="stop53" /></linearGradient><linearGradient
       id="linearGradient45"><stop
         style="stop-color:#ffffbe;stop-opacity:1;"
         offset="0.19306931"
         id="stop43" /><stop
         style="stop-color:#e2ffcb;stop-opacity:1;"
         offset="0.34158418"
         id="stop47" /><stop
         style="stop-color:#a0f4ff;stop-opacity:1;"
         offset="0.56188118"
         id="stop46" /><stop
         style="stop-color:#aafff0;stop-opacity:1;"
         offset="0.76485145"
         id="stop44" /><stop
         style="stop-color:#1acbef;stop-opacity:1;"
         offset="1"
         id="stop45" /></linearGradient><linearGradient
       id="linearGradient3449"
       gradientTransform="matrix(14.078685,3.2050756,2.7517835,12.797846,-4748.5116,-1526.1956)"><stop
         style="stop-color:#ff62ad;stop-opacity:1;"
         offset="0"
         id="stop3447" /></linearGradient><linearGradient
       id="linearGradient3431"
       gradientTransform="matrix(6.8223163,-2.1857413,1.1593608,6.9482574,-746.67493,-1049.6295)"><stop
         style="stop-color:#0078b3;stop-opacity:1;"
         offset="0"
         id="stop3429" /></linearGradient><linearGradient
       id="linearGradient3437"
       gradientTransform="matrix(7.8980003,0.70016255,1.2615059,7.5214486,-880.28557,-1464.5033)"><stop
         style="stop-color:#9d53c6;stop-opacity:1;"
         offset="0"
         id="stop3435" /></linearGradient><linearGradient
       id="linearGradient3425"
       gradientTransform="matrix(0.48622023,-0.19773917,0.05508939,0.49004598,-57.745281,-709.12214)"><stop
         style="stop-color:#0bb700;stop-opacity:1;"
         offset="0"
         id="stop3423" /></linearGradient><linearGradient
       id="linearGradient885"
       gradientTransform="matrix(1926.3503,-1567.0242,1567.0242,1926.3503,-2810951.4,2136233.6)"><stop
         style="stop-color:#ffd457;stop-opacity:1;"
         offset="0"
         id="stop883" /></linearGradient><linearGradient
       xlink:href="#linearGradient891"
       id="linearGradient893"
       x1="84.59861"
       y1="117.35902"
       x2="102.41467"
       y2="117.35902"
       gradientUnits="userSpaceOnUse"
       gradientTransform="matrix(6.9419056,-1.1968061,1.1968061,6.9419056,-288.57782,-689.47836)" /><linearGradient
       id="linearGradient891"><stop
         style="stop-color:#998026;stop-opacity:1;"
         offset="0"
         id="stop889" /></linearGradient><linearGradient
       xlink:href="#linearGradient853"
       id="linearGradient855"
       x1="135.97775"
       y1="63.876076"
       x2="146.7224"
       y2="63.876076"
       gradientUnits="userSpaceOnUse"
       gradientTransform="matrix(6.56798,2.5463772,-2.6928638,6.509292,-288.57801,-689.47838)" /><linearGradient
       id="linearGradient853"><stop
         style="stop-color:#faffff;stop-opacity:1;"
         offset="0"
         id="stop851" /></linearGradient><linearGradient
       xlink:href="#linearGradient3443"
       id="linearGradient3445"
       x1="135.51396"
       y1="101.61441"
       x2="202.46855"
       y2="101.61441"
       gradientUnits="userSpaceOnUse"
       gradientTransform="matrix(7.0006556,-1.2069348,1.2069348,7.0006556,-295.11209,-700.27747)" /><linearGradient
       id="linearGradient3443"><stop
         style="stop-color:#000000;stop-opacity:1;"
         offset="0"
         id="stop3441" /></linearGradient><filter
       style="color-interpolation-filters:sRGB"
       id="filter10"
       x="-0.030720001"
       y="-0.030720001"
       width="1.06144"
       height="1.06144"><feGaussianBlur
         stdDeviation="10.5472"
         id="feGaussianBlur10" /></filter><linearGradient
       xlink:href="#linearGradient53"
       id="linearGradient54"
       gradientUnits="userSpaceOnUse"
       gradientTransform="translate(1e-4,-5e-5)"
       x1="306.60645"
       y1="1024"
       x2="638.42346"
       y2="100" /><linearGradient
       xlink:href="#linearGradient45"
       id="linearGradient55"
       gradientUnits="userSpaceOnUse"
       gradientTransform="matrix(0.95873786,0,0,0.95873786,21.1263,21.12616)"
       x1="306.60645"
       y1="1024"
       x2="638.42346"
       y2="100" /><filter
       style="color-interpolation-filters:sRGB"
       id="filter71"
       x="-0.0078825427"
       y="-0.01192948"
       width="1.0157651"
       height="1.023859"><feGaussianBlur
         stdDeviation="1.9134523"
         id="feGaussianBlur71" /></filter></defs><g
     id="layer1"><rect
       style="opacity:0.5;mix-blend-mode:normal;fill:#000000;fill-opacity:1;stroke:none;stroke-width:3.78;stroke-linecap:round;stroke-linejoin:round;stroke-dasharray:none;filter:url(#filter10)"
       id="rect9"
       width="824"
       height="824"
       x="100"
       y="112"
       ry="160"
       rx="160"
       transform="translate(-6.5398195e-5,1.79038e-5)" /><rect
       style="fill:url(#linearGradient54);fill-opacity:1;stroke:none;stroke-width:3.78;stroke-linecap:round;stroke-linejoin:round;stroke-dasharray:none"
       id="rect53"
       width="824"
       height="824"
       x="100.00005"
       y="100"
       ry="160"
       rx="160" /><rect
       style="fill:url(#linearGradient55);fill-opacity:1;stroke:none;stroke-width:3.62404;stroke-linecap:round;stroke-linejoin:round;stroke-dasharray:none"
       id="rect54"
       width="790"
       height="790"
       x="117.00005"
       y="117"
       ry="153.39807"
       rx="153.39807" /><path
       id="path8"
       style="display:none;fill:url(#linearGradient3449);fill-opacity:1;stroke:none;stroke-width:0.647356;stroke-linecap:round;stroke-linejoin:round;stroke-dasharray:none;stroke-dashoffset:3.02362"
       d="m 13.915932,318.14844 1.396542,33.98047 c 3.179903,8.2573 6.468368,18.57083 9.841753,29.09766 l 0.433729,3.5703 c 0.800648,1.66902 1.623813,3.53014 2.445273,5.36524 4.53283,13.91307 9.300131,27.5832 14.419921,37.34179 1.236156,2.35627 2.848775,5.15309 4.872954,7.93166 2.884044,6.22768 5.800157,11.97701 8.730466,16.62109 3.425772,5.42907 9.40379,13.4555 18.117258,16.40234 21.968467,7.42885 25.568791,-35.99637 32.240172,-52.00781 0.86306,-2.07113 2.38431,-0.77512 3.29114,0.8535 2.25395,4.04784 5.84044,10.15607 13.28321,17.82812 3.91438,4.035 8.74762,7.83179 14.83971,9.93166 l -9e-5,0.003 c 7.1382,1.55428 11.13964,0.42248 12.92981,-1.55471 2.35752,-2.59999 4.12006,-4.86751 5.09374,-6.97851 2.82595,-6.12732 4.5149,-12.59212 6.09959,-17.92969 1.454,-4.89796 2.59639,-9.22314 4.14264,-12.89845 0.35312,-0.8391 1.34924,-0.57984 2.17762,1.00003 5.52058,10.52875 10.43099,22.43402 14.80074,32.53906 5.39343,12.53537 9.78654,22.912 15.53713,34.35351 2.10541,4.18932 5.08355,9.61293 7.82819,13.54297 2.74497,3.92998 8.60068,10.06437 14.13473,11.92969 5.53405,1.86529 12.82669,-1.15281 14.71485,-4.92774 1.88809,-3.77532 3.90215,-8.0933 5.22657,-11.97657 1.32409,-3.88323 2.43332,-8.00957 4.04293,-10.1328 0.57352,-0.75637 2.98352,-1.944 5.48834,1.02148 3.2777,3.88065 7.30583,9.78623 9.89449,13.43556 4.75724,6.70603 8.27461,11.07153 12.17577,15.07421 6.05402,6.21104 10.52145,7.43838 12.2344,7.64453 1.02501,0.1234 1.36766,0.18128 1.49612,0.0957 0.25142,0.004 0.28535,-0.11211 0.29486,-0.45114 0.0176,-0.59341 -0.11662,-0.31354 -1.56641,-1.70314 -1.59787,-1.53271 -3.95476,-3.69355 -7.67185,-10.09961 -2.75923,-4.75568 -4.02786,-8.02617 -7.58387,-16.24611 -1.80639,-4.17486 -4.833,-10.9502 -8.43764,-17.73632 -2.28764,-4.30676 -6.66201,-11.67026 -15.20888,-15.35353 -7.74894,-3.33959 -12.78658,-0.34047 -15.31254,2.86329 -2.99317,3.79637 -5.59394,7.24167 -7.94335,11.25976 -0.82,1.40245 -1.59507,2.90522 -2.52546,4.21681 -1.7999,2.5377 -4.76865,-0.13966 -5.64257,-2.59959 -4.15751,-11.6988 -7.27582,-22.16555 -11.74806,-36.61133 -3.42474,-11.15637 -7.6464,-24.98946 -13.15235,-38.93164 -1.7893,-4.53136 -4.78802,-9.90493 -7.75586,-16.19727 -1.75223,-3.71549 -6.18046,-10.70179 -16.14844,-15.45508 -6.84371,-3.2637 -11.46524,-1.67997 -13.78893,0.39647 -3.21735,2.06254 -5.2918,4.60269 -6.75013,6.92189 -3.83789,6.10398 -6.3392,12.52553 -8.80067,18.8828 -1.67727,4.33177 -3.97825,10.40509 -5.10745,12.61914 -1.12903,2.21397 -2.18761,3.14393 -5.31842,-2.19334 -4.9801,-8.49065 -12.98214,-23.9685 -28.156225,-29.64259 -20.744794,-7.75708 -28.587993,31.78938 -36.640649,50.39258 -0.17875,0.41289 -0.588001,0.49089 -1.011577,0.34768 -1.252654,-2.95905 -2.550336,-5.96758 -3.875128,-8.99021 -9.900303,-29.09853 -22.05142,-72.65592 -42.078163,-86.84766 z" /><path
       id="path76"
       style="color:#000000;display:inline;opacity:0.5;fill:#000000;fill-opacity:1;stroke:none;stroke-linecap:round;stroke-linejoin:round;-inkscape-stroke:none;filter:url(#filter71)"
       d="m 2739.5902,398.03032 v 0.002 a 2.7056555,2.7056555 0 0 0 -2.1796,0.35584 c -9.8707,6.49918 -33.5633,14.75466 -59.2346,23.37678 -25.6712,8.62214 -53.4926,17.79117 -72.8334,27.12867 -19.4381,9.38449 -43.8439,26.85135 -66.1526,41.49617 -11.1544,7.32241 -21.7725,13.93354 -30.821,18.43591 -6.8927,3.42971 -12.7659,5.36946 -17.0973,5.84866 -0.6723,-0.0227 -1.3455,-0.0364 -2.0201,-0.0261 l 10e-5,-10e-4 a 2.1463597,2.1463597 0 0 0 -0.1428,0.008 c -0.5767,0.0475 -1.2487,0.0744 -1.9557,0.11796 -0.093,0.007 -0.1827,0.003 -0.2763,0.0109 a 2.7056555,2.7056555 0 0 0 -0.026,0.0167 c -1.5765,0.11614 -3.349,0.39722 -5.0343,1.55553 a 2.1463597,2.1463597 0 0 0 -0.1801,0.13802 c -1.3565,1.16142 -2.0046,2.75739 -2.2265,4.2174 -0.2219,1.46001 -0.083,2.84947 0.1272,4.04895 0.4439,2.66165 1.2248,5.18368 2.1567,7.61026 -1.4176,0.56441 -2.8181,1.12228 -4.2678,1.71743 -0.01,0.002 -0.012,0.007 -0.019,0.01 -0.01,0.002 -0.01,0.004 -0.016,0.006 -9.8002,3.87145 -20.0545,7.84112 -28.8925,14.61482 a 2.6829482,2.6829482 0 0 0 3e-4,0.004 c -6.3292,4.87027 -11.797,11.46509 -14.1034,19.53904 -6e-4,0.002 -9e-4,0.003 -9e-4,0.005 -0.2855,0.96681 -0.4201,1.97258 -0.6214,2.96285 -6.1682,-0.39401 -11.5654,-1.06358 -17.9471,-2.24875 a 2.6829482,2.6829482 0 0 0 -0.058,-0.009 c -5.7833,-0.94128 -11.4302,-3.22733 -17.2024,-5.57528 a 2.6829482,2.6829482 0 0 0 -0.041,-0.0156 c -12.2353,-4.74781 -25.1544,-8.4699 -38.5485,-9.22778 a 2.6829482,2.6829482 0 0 0 -0.019,-1.1e-4 c -8.9607,-0.44416 -19.1811,2.59875 -26.9459,6.69753 a 2.6829482,2.6829482 0 0 0 -0.074,0.0425 c -0.8173,0.46566 -1.7812,1.02208 -2.7643,1.68103 -0.3161,-0.70089 -0.6488,-1.49884 -1.0058,-2.46181 -1.1158,-3.00987 -1.5209,-5.01802 -2.7515,-10.10009 -0.6252,-2.58119 -1.6946,-6.77899 -3.0954,-11.04093 -0.889,-2.70482 -2.675,-7.37517 -7.2271,-10.34212 -4.1271,-2.69007 -7.3237,-1.46461 -9.0948,0.12811 -2.0987,1.88735 -3.9362,3.61145 -5.6865,5.69022 -0.6109,0.72556 -1.206,1.51398 -1.8714,2.17632 -1.2873,1.28152 -2.7299,-0.55411 -2.9887,-2.05612 -1.2316,-7.14329 -1.9873,-13.47398 -3.1275,-22.22897 -0.8638,-6.75853 -1.9208,-15.13689 -3.7057,-23.70467 -0.58,-2.7846 -1.7723,-6.17358 -2.8557,-10.08826 -0.6396,-2.31152 -2.4943,-6.77072 -7.7579,-10.49428 -1.3551,-0.95873 -2.5983,-1.49404 -3.704,-1.73811 -1.843,-0.40678 -3.3042,-0.004 -4.2685,0.59864 -2.0557,0.86755 -3.5015,2.12377 -4.5706,3.31347 -2.8136,3.13123 -4.8894,6.57745 -6.9362,9.99094 -1.3947,2.32592 -3.3216,5.59228 -4.1909,6.75413 -0.8692,1.16181 -1.5703,1.59188 -2.8422,-1.78947 -1.5275,-4.06137 -4.6127,-9.9887 -10.4392,-13.31085 -4.1055,-2.34083 -9.0522,-3.91096 -16.9399,-5.34606 -7.8877,-1.4351 -4.3902,2.08511 -1.5603,2.27142 2.83,0.18631 1.8034,2.62456 -6.3252,0.18663 -4.9891,-1.49631 -9.1524,-0.8087 -11.2348,0.84595 -2.0825,1.65463 20.7543,4.16639 28.2251,8.59325 7.4709,4.42685 12.388,16.99606 8.3949,11.45053 -3.9931,-5.54553 -6.5747,-6.46231 -11.4804,-9.1156 -4.9057,-2.65328 -17.375,-7.60583 -18.5528,-5.34765 -1.1778,2.25817 3.7704,6.53849 10.7579,7.93404 8.3171,1.66111 15.0008,10.11251 17.5429,14.30161 2.5421,4.18909 2.3534,6.42295 5.8745,11.57533 1.8519,2.70982 4.2553,5.37325 7.5521,7.1857 l -3e-4,0.002 c 3.9528,1.60231 6.3675,1.34829 7.5936,0.38828 1.6143,-1.26206 2.8534,-2.39183 3.623,-3.50981 2.2337,-3.24505 3.8463,-6.79675 5.2875,-9.71053 1.3224,-2.67382 2.4088,-5.04979 3.663,-7.01101 0.2864,-0.44775 0.8346,-0.1998 1.1545,0.79134 2.1319,6.60532 3.7761,13.9423 5.2879,20.18968 1.8597,7.74722 3.3576,14.15343 5.5313,21.30672 0.7958,2.61916 1.9709,6.03466 3.1602,8.56805 1.1895,2.5334 3.951,6.64435 6.95,8.2665 2.999,1.62212 7.4941,0.60842 8.9549,-1.3762 1.4608,-1.98485 3.0478,-4.26877 4.195,-6.37164 1.147,-2.10287 2.1942,-4.36767 3.3308,-5.4296 0.405,-0.37829 1.9095,-0.82158 3.0565,1.13307 1.5009,2.55786 3.2332,6.35476 4.3606,8.71118 2.0719,4.3302 3.6621,7.19023 5.5096,9.88014 0.6586,0.95886 1.2871,1.72051 1.8886,2.38644 -2.3106,3.8376 1.4804,8.76713 5.808,7.39649 l -0.768,0.12493 c 11.8096,-0.19259 23.7049,1.26692 34.8106,5.08376 a 2.6829482,2.6829482 0 0 0 0.019,0.006 c 11.94,4.01094 23.4532,9.78592 35.7879,14.1134 5.7746,2.07139 11.7622,3.91821 17.9223,5.09433 -4.9565,4.43455 -10.3943,8.30047 -16.3129,11.18596 -3.5981,1.71929 -7.4543,2.81586 -11.2593,2.69094 a 2.1463597,2.1463597 0 0 0 -0.053,-0.002 c -8.0338,-0.0629 -16.1047,-0.77453 -24.24,-1.47275 a 2.1463597,2.1463597 0 0 0 -0.012,1.1e-4 c -10.0009,-0.82577 -20.2357,-1.61725 -30.5057,-0.39855 a 2.1463597,2.1463597 0 0 0 -0.01,4.6e-4 c -8.9953,1.10654 -17.9604,3.99127 -25.5425,9.32039 a 2.1463597,2.1463597 0 0 0 -0.017,0.01 c -0.6543,0.46803 -1.4634,1.02953 -2.2798,1.70181 -0.069,-0.11843 -0.1146,-0.15219 -0.185,-0.27754 -1.0717,-1.90638 -1.8647,-3.85836 -3.0397,-7.3988 -2.0971,-6.31847 -2.7947,-9.91649 -5.3258,-20.70345 -1.223,-5.21221 -3.0953,-13.71781 -5.9797,-21.67222 -0.959,-2.64472 -2.3369,-5.77274 -4.3957,-9.10004 -1.4988,-2.42191 -3.9415,-5.28058 -7.7385,-6.88818 -1.2273,-0.51968 -2.409,-0.80791 -3.5229,-0.91894 v -1.8e-4 c -1.8571,-0.18404 -3.5279,0.11895 -4.9284,0.65182 -2.5661,0.9764 -4.6787,2.33589 -6.4413,3.84486 -4.2395,3.62939 -7.0969,8.00271 -10.0499,12.94626 -2.5431,4.25744 -4.1596,9.04742 -7.9665,11.72953 -5.7877,5.19094 -13.009,-3.39151 -19.1332,-10.4626 -6.1243,-7.0711 -11.1206,-11.06999 -20.492,-14.7069 -7.5404,-2.72885 -11.774,-3.14507 -20.8083,-2.71969 -9.0343,0.42538 -2.4094,4.29312 4.311,4.45335 6.7204,0.16023 6.8123,5.30598 0.9232,4.54455 -11.1269,-1.43866 -26.8791,2.61801 -17.6389,3.99432 9.2402,1.37632 0.1311,2.72714 -3.1952,6.68439 -3.3263,3.95725 15.6139,-3.62164 27.4445,0.19301 11.8305,3.81465 3.0566,4.38678 -13.1341,6.38519 -16.1906,1.99841 -1.7781,5.60803 5.3838,5.37948 7.162,-0.22856 19.607,1.17534 25.0278,3.15153 5.4208,1.9762 7.8,5.5388 9.9112,7.53394 4.7808,4.51766 9.2057,9.94457 16.9309,9.80858 6.2808,-0.11052 10.4389,-2.14532 13.5591,-5.29746 3.8467,-3.88587 6.0841,-8.91749 8.2361,-12.66453 2.9032,-5.41558 11.3019,-17.21385 16.513,-8.61529 5.2111,8.59855 6.4775,13.11028 8.5124,17.54162 3.9771,8.66084 6.4148,13.52191 9.657,18.44611 2.0219,3.07095 3.8189,5.11777 5.4974,6.62622 0.014,0.0127 0.025,0.0176 0.039,0.0302 -1.0964,3.21364 2.1319,6.51699 5.3998,5.4652 11.6932,-1.93107 21.4484,-1.11515 33.6201,-0.40224 12.7235,0.79496 25.3777,2.47643 37.9811,4.63611 a 2.1463597,2.1463597 0 0 0 0.09,0.0145 c 8.2621,1.0567 18.2956,-1.50784 25.6046,-3.93216 a 2.1463597,2.1463597 0 0 0 0.024,-0.008 c 9.5517,-3.28961 18.5839,-7.98477 26.8668,-13.70184 a 2.1463597,2.1463597 0 0 0 0.016,-0.0111 c 0.8614,-0.60616 1.7095,-1.2473 2.559,-1.88442 0.4195,0.45202 0.8548,0.89137 1.3089,1.31455 -2.037,4.50906 -3.9693,8.87711 -6.825,12.53459 a 2.1463597,2.1463597 0 0 0 -5e-4,0.003 c -2.4945,3.21159 -5.8572,5.82564 -9.4428,7.78401 a 2.1463597,2.1463597 0 0 0 -0.02,0.009 c -6.826,3.81951 -14.9115,5.41978 -22.8087,8.46356 0,0.002 -0.01,0.002 -0.012,0.004 0,9.8e-4 -0.01,0.002 -0.01,0.004 -19.0011,7.13321 -36.6565,18.39885 -50.2847,33.65013 a 2.1463597,2.1463597 0 0 0 -0.011,0.008 c -2.7736,3.13169 -5.4965,6.39752 -7.8974,9.94113 a 2.1463597,2.1463597 0 0 0 -0.2276,0.43822 c -0.3737,0.97994 -0.3455,1.93891 -0.069,2.80399 -0.3938,0.26379 -0.5536,0.38367 -1.0065,0.67506 -1.6071,1.03385 -4.3817,2.56404 -6.6783,2.14193 -2.3061,-0.42438 -4.3358,-1.79792 -6.7773,-4.95087 -2.3381,-3.01922 -3.6561,-6.21465 -6.0204,-11.22832 -1.5573,-3.30241 -3.7877,-7.92839 -6.6999,-12.23977 -2.0047,-2.96832 -5.5748,-6.96544 -12.2457,-7.00806 -7.5128,-0.0481 -14.1858,4.08948 -19.8592,8.31168 -4.0347,3.00296 -9.5111,5.42567 -12.2646,5.12292 -1.8798,-0.20674 -3.9962,-2.74752 -5.2969,-4.32241 -2.9069,-3.51971 -4.6462,-7.97025 -7.1983,-13.18595 -2.1529,-4.39996 -4.8981,-9.5696 -8.2919,-14.66333 -2.0901,-3.13704 -5.6062,-7.26106 -11.7451,-8.19038 l 0.01,-0.001 c -0.8767,-0.13411 -1.8071,-0.20031 -2.7947,-0.19045 -17.0549,0.2962 -31.2343,32.65342 -39.0445,38.61968 -7.81,5.96626 -6.6434,7.17371 -14.1918,10.42976 -7.5483,3.25606 -9.9891,5.20902 -20.2932,7.35638 -10.8175,2.25436 -4.3114,7.90076 14.4881,1.53862 18.7994,-6.36213 16.6554,-3.20348 3.8097,3.43756 -12.8457,6.64105 -26.932,5.5823 -18.3945,8.60566 8.7796,3.10915 26.7521,-7.33267 31.127,-5.93203 4.3749,1.40065 -25.9468,10.04074 -13.1432,8.29452 12.8036,-1.74622 4.3517,2.96971 -9.0324,5.89708 -13.3841,2.92737 3.9158,6.64736 13.823,2.3491 9.9073,-4.29826 11.3187,-5.32703 17.333,-11.50243 6.0143,-6.1754 21.7769,-40.34402 27.875,-40.31776 6.0982,0.0249 9.4901,8.52711 13.4821,14.39904 3.1738,4.66216 6.3612,8.95381 10.1836,13.36248 3.0422,3.50917 7.888,7.35042 15.0723,6.57556 8.6836,-0.93676 15.2594,-6.67982 19.8808,-11.29924 4.4178,-4.41572 7.7462,-6.9136 10.954,-7.6798 1.1521,-0.27537 3.0864,0.75811 5.1458,2.36205 3.0673,2.38908 5.8726,6.4442 8.2084,9.36181 3.3761,4.21664 6.1807,7.39643 9.6848,10.28519 3.9462,3.25297 8.6286,4.67963 12.8597,3.7175 4.9189,-1.11849 7.6899,-4.64409 9.0085,-6.45523 0.2307,-0.31683 0.3502,-0.57978 0.5496,-0.88676 1.0628,0.49224 2.3006,0.62265 3.5023,0.13805 10.3121,-2.04204 19.5528,-7.1222 27.9487,-12.77306 l 0.018,-0.0118 c 9.0928,-5.99738 17.5983,-10.38541 27.8361,-14.33438 a 2.1463597,2.1463597 0 0 0 0.017,-0.009 c 4.3227,-1.71171 8.9081,-2.87501 13.5783,-3.90429 a 2.1463597,2.1463597 0 0 0 0.061,-0.014 c 11.7314,-2.94084 23.1004,-10.61931 31.4016,-19.24395 l 3e-4,-0.002 c 1.0199,-1.05209 1.9896,-2.1561 2.9146,-3.2991 -0.2844,2.53225 -0.6206,5.07981 -0.9968,7.65676 -1.6409,10.43529 -2.9748,17.57821 -7.5417,26.8262 -1.1852,2.28139 -2.9244,4.9591 -4.3926,5.96326 a 2.6829482,2.6829482 0 0 0 -0.068,0.0489 c -2.9071,2.12441 -5.7208,3.63581 -9.0136,4.80717 -9.6594,3.25787 -20.1074,7.75895 -29.0096,13.11016 -5.968,3.56188 -11.2392,8.62436 -14.4761,15.03942 -0.7214,1.08644 -1.0074,2.32063 -0.8386,3.59959 0.085,0.64629 0.3441,1.31429 0.7411,1.92488 -1.0718,1.07113 -2.0571,2.08336 -3.5515,3.44664 -2.2838,1.99302 -6.0049,4.93776 -8.9093,5.35578 -4.7147,0.67842 -9.5704,-0.13642 -15.1176,-3.49424 -4.1258,-2.49739 -10.4346,-6.05366 -19.4306,-4.35797 -6.0041,1.13168 -11.2141,5.3057 -15.0412,9.58361 -4.2293,4.7274 -7.612,9.28668 -11.2186,14.22289 -3.1575,4.32145 -6.4607,9.06393 -10.0702,12.56421 -2.7198,2.63754 -5.7042,5.10023 -7.8181,5.18768 -3.5004,0.14498 -5.9805,-2.34745 -7.9686,-4.17157 -4.1948,-3.85882 -7.5089,-8.58587 -11.5986,-14.203 -3.408,-4.68098 -7.3499,-10.39903 -12.2191,-15.35952 -1.8014,-1.83523 -4.0896,-3.68753 -6.9759,-5.30412 -2.1425,-1.19992 -5.3484,-1.98367 -9.7483,-1.26273 -19.3371,4.3326 -26.017,25.85694 -37.4849,28.44508 -4.939,1.11482 -11.2766,0.0487 -17.7192,0.64786 -6.4426,0.59918 -21.6239,1.62775 -29.6156,4.78894 -7.9918,3.16119 -2.1992,4.26511 12.9777,2.97218 15.1768,-1.29292 11.5517,2.85371 -0.3688,4.98217 -11.9205,2.12848 -9.858,8.45308 7.0859,3.61105 8.2046,-2.34462 20.0095,-5.70321 17.1546,-1.66608 -2.8549,4.03713 -9.8555,6.17656 -15.2462,7.56507 -15.9525,4.10891 -1.872,6.73241 10.7553,3.42805 12.6272,-3.30436 15.4434,-0.51351 8.8269,2.37569 -13.241,5.78182 -6.1105,7.49857 2.879,4.94446 21.7363,-6.17576 34.8768,-31.94627 45.7137,-32.28376 8.6656,-0.26988 19.4439,19.0399 31.0542,28.19845 2.2914,1.70065 4.9249,3.2559 8.118,4.26113 2.6375,0.94987 6.1124,1.28505 10.1097,-0.13607 6.8525,-2.43613 11.921,-7.55747 15.3103,-12.14994 4.135,-5.60305 7.2927,-11.2713 9.8329,-15.91224 3.0369,-5.54816 5.1401,-9.89496 8.0938,-13.79394 2.4739,-3.2656 4.523,-5.36363 6.2703,-5.99897 4.5917,-1.66953 10.0886,-0.44262 14.2853,1.01876 7.3673,2.56929 14.6171,2.53242 20.9943,-0.0736 6.0119,-2.45682 9.7198,-7.51752 11.6192,-10.49579 1.0977,-1.65545 1.9891,-3.21057 2.7852,-4.68892 1.469,0.15586 2.9276,-0.28768 4.0085,-1.15707 l -0.5055,0.3233 c 8.4837,-4.13612 18.0124,-6.00869 27.6585,-7.78373 a 2.6829482,2.6829482 0 0 0 0.011,-2.9e-4 c 9.1118,-1.69748 18.7859,-3.17028 27.6951,-7.6445 a 2.6829482,2.6829482 0 0 0 0.01,-0.004 c 6.5976,-3.33369 12.0803,-8.76457 15.3947,-15.4085 4.7098,-8.75767 7.399,-18.23462 9.7599,-27.50398 a 2.6829482,2.6829482 0 0 0 0.01,-0.0292 c 1.8707,-7.70258 3.4262,-15.5568 4.1885,-23.55487 a 2.6829482,2.6829482 0 0 0 0.01,-0.0823 c 0.1296,-2.02411 0.4643,-3.44385 1.1579,-3.95925 a 2.6829482,2.6829482 0 0 0 0.018,-0.0139 c 0.055,-0.0414 0.2099,-0.12217 0.7184,-0.24407 0.5086,-0.12191 1.3366,-0.24838 2.3245,-0.73387 l -0.474,0.17773 c 1.5638,-0.42891 3.3327,-0.82096 5.1789,-1.54972 9.7287,-3.58468 17.6862,-10.48644 23.9065,-18.27325 4.0584,-5.07569 7.2806,-10.65066 10.1528,-16.275 1.3187,-2.17898 2.907,-4.17961 4.6564,-6.09962 2.3827,3.18373 4.7445,6.65362 7.9935,9.63419 a 2.1463597,2.1463597 0 0 0 0.04,0.0367 c 1.0266,0.89382 2.2872,1.61281 3.7366,1.95002 1.4434,0.33583 3.1436,0.23991 4.6406,-0.6355 2.3791,-1.34227 3.7347,-3.51351 4.5482,-5.74929 a 2.7056555,2.7056555 0 0 0 0.024,-0.0298 c 0.01,-0.0197 0,-0.0432 0.01,-0.0642 0.037,-0.10468 0.075,-0.20895 0.1105,-0.31379 0.1568,-0.61887 0.9865,-2.1747 2.6464,-4.0812 1.7016,-1.95431 4.1648,-4.31667 7.2195,-6.97102 6.1093,-5.30866 14.5862,-11.81201 24.3411,-19.18408 19.5096,-14.74413 44.147,-32.98346 65.7069,-52.69701 25.3899,-23.21552 49.312,-48.28816 66.3734,-68.77528 8.5307,-10.24355 15.3429,-19.32788 19.8051,-26.55694 2.231,-3.61454 3.8777,-6.75327 4.8668,-9.47255 0.9892,-2.71927 1.5954,-5.14149 0.3727,-7.54636 a 2.7056555,2.7056555 0 0 0 -1.7183,-1.38834 z"
       transform="matrix(1.8367125,-0.31665494,0.31665494,1.8367125,-4157.3075,181.8418)" /><path
       id="rect3097"
       style="display:inline;fill:url(#linearGradient3449);fill-opacity:1;stroke:none;stroke-width:0.70443;stroke-linecap:round;stroke-linejoin:round;stroke-dasharray:none;stroke-dashoffset:3.02362"
       d="m 92.871789,346.35604 c -9.850538,-3.31992 -34.322675,-8.46812 -35.770891,-3.94753 -1.448216,4.52058 8.995463,10.81579 22.271399,11.16639 15.802307,0.41731 30.755193,13.8232 36.750803,20.71241 5.9956,6.8892 6.35536,11.05146 14.45432,19.39992 4.25948,4.39075 9.51885,8.52228 16.14804,10.80728 l -1e-4,0.004 c 7.76754,1.69131 12.12176,0.45973 14.06977,-1.69179 2.56536,-2.82921 4.4833,-5.29665 5.54282,-7.59375 3.0751,-6.66754 4.91296,-13.70231 6.63736,-19.51046 1.58219,-5.32979 2.8253,-10.03629 4.50788,-14.03564 0.38425,-0.91308 1.46819,-0.63096 2.3696,1.0882 6.0073,11.45701 11.35064,24.41191 16.10565,35.40785 5.86893,13.64055 10.64936,24.93203 16.90695,37.38227 2.29103,4.55867 5.53174,10.46045 8.51836,14.73698 2.98698,4.27647 9.35895,10.9517 15.38091,12.98147 6.02195,2.02974 13.95754,-1.25444 16.01217,-5.36219 2.05456,-4.10817 4.24618,-8.80685 5.68738,-13.03248 1.44082,-4.22559 2.64785,-8.71573 4.39937,-11.02615 0.62408,-0.82306 3.24656,-2.11539 5.97221,1.11153 3.56669,4.22279 7.94995,10.64903 10.76683,14.6201 5.17667,7.29727 9.00415,12.04765 13.24925,16.40322 6.58777,6.75863 11.44907,8.09419 13.31304,8.31851 1.11538,0.13428 1.48823,0.19726 1.62802,0.10413 0.27359,0.004 0.31051,-0.122 0.32086,-0.49092 0.0192,-0.64573 -0.12691,-0.34118 -1.70452,-1.8533 -1.73873,-1.66784 -4.30342,-4.01919 -8.34822,-10.99004 -3.0025,-5.17496 -4.38298,-8.73379 -8.2525,-17.67843 -1.96566,-4.54294 -5.25911,-11.91563 -9.18154,-19.30003 -2.48933,-4.68647 -7.24937,-12.69917 -16.54978,-16.70717 -8.43212,-3.63402 -13.91389,-0.37049 -16.66255,3.11572 -3.25707,4.13109 -6.08713,7.88014 -8.64367,12.25248 -0.8923,1.52609 -1.7357,3.16135 -2.74812,4.58858 -1.95859,2.76143 -5.18908,-0.15198 -6.14004,-2.82879 -4.52406,-12.73021 -7.91729,-24.11976 -12.78383,-39.83914 -3.72668,-12.13997 -8.32054,-27.19265 -14.31192,-42.36403 -1.94705,-4.93087 -5.21015,-10.7782 -8.43965,-17.6253 -1.90672,-4.04306 -6.72536,-11.6453 -17.57216,-16.81767 -7.44708,-3.55144 -12.47607,-1.82809 -15.00462,0.43142 -3.50102,2.24439 -5.75836,5.00849 -7.34526,7.53216 -4.17626,6.64213 -6.89809,13.62984 -9.57657,20.54759 -1.82515,4.71369 -4.329,11.32245 -5.55775,13.73171 -1.22857,2.40916 -2.38048,3.42111 -5.78732,-2.38672 -4.09163,-6.97588 -11.63404,-16.88571 -23.38762,-21.14257 -8.28186,-2.99942 -17.866166,-4.31654 -32.808038,-4.45475 -14.941869,-0.13818 -7.40262,5.21934 -2.145911,4.66544 5.256892,-0.55394 4.143021,4.24946 -11.55905,2.34566 -9.637356,-1.16847 -17.065361,1.41447 -20.366178,5.11299 -3.301004,3.69853 39.437875,1.08063 54.561561,6.84582 15.123686,5.76517 28.135656,27.29309 19.045456,18.37196 -9.0902,-8.92113 -14.12166,-9.78682 -23.972201,-13.10674 z" /><path
       id="rect3103"
       style="fill:url(#linearGradient3431);fill-opacity:1;stroke:none;stroke-width:0.70443;stroke-linecap:round;stroke-linejoin:round;stroke-dasharray:none;stroke-dashoffset:3.02362"
       d="m 158.04705,616.61222 c -1.65271,0.0313 -3.38341,0.20261 -5.19423,0.53345 -31.23115,5.94455 -47.02838,69.86541 -59.484215,83.29689 -12.45566,13.43142 -9.930603,15.28087 -22.763796,23.65155 -12.833006,8.37067 -16.697057,12.73068 -34.942751,19.93763 -19.154783,7.56602 -5.416826,15.87649 27.097844,-1.76191 32.514671,-17.63839 29.576163,-11.15819 8.08523,5.10718 -21.491117,16.2654 -47.698906,18.7821 -31.060608,21.63172 17.110312,2.93048 46.814329,-21.93942 55.293285,-20.75216 8.478961,1.18726 -44.47759,26.65791 -21.514007,19.39628 22.963583,-7.26163 8.934744,4.07563 -14.721218,13.69054 -23.655774,9.61489 9.296178,10.96936 26.131788,-0.0625 16.835798,-11.03188 19.103208,-13.36785 28.194278,-26.61476 9.09125,-13.24694 27.22133,-80.99567 38.43011,-82.87844 11.20852,-1.88529 20.13149,12.65675 29.32302,22.17773 7.30566,7.55807 14.51986,14.42987 22.93654,21.31696 6.69903,5.482 16.81498,11.0029 29.7651,7.30474 15.65265,-4.47027 25.91267,-17.10098 32.93809,-27.04894 6.71597,-9.50934 12.03774,-15.15124 17.68692,-17.57429 2.02888,-0.87059 5.90904,0.41593 10.19946,2.70979 6.39026,3.4168 12.8257,9.97751 18.03978,14.5967 7.53614,6.67569 13.69407,11.62677 21.04484,15.82302 8.27811,4.72519 17.33171,5.86349 24.79836,2.75652 8.68043,-3.61194 12.65274,-10.96527 14.50112,-14.70936 2.00014,-4.05194 2.91864,-7.6936 3.27085,-9.36628 0.18953,-0.89941 0.24804,-1.01858 0.39099,-1.53659 0.52476,-1.23789 0.79312,-1.78212 0.50791,-2.18907 -0.0314,-0.0506 -0.11492,-0.11807 -0.18103,-0.16148 -0.0663,-0.0557 -0.0993,-0.11527 -0.19384,-0.16993 -0.0904,-0.0527 -0.11479,-0.0186 -0.18468,-0.051 -6.4e-4,-0.004 -3.2e-4,-0.002 -0.0193,-0.002 -0.38603,-0.18434 -0.5748,-0.19982 -0.76087,-0.10202 -0.0691,0.027 -0.14343,0.0786 -0.21882,0.13608 -0.0165,0.0142 -0.0256,0.0158 -0.0383,0.0299 -0.27394,0.22331 -0.58106,0.60084 -0.92658,1.09029 -0.38988,0.41854 -0.52477,0.60923 -1.3411,1.35383 -1.50462,1.37188 -3.67412,3.6121 -6.70952,6.39719 -2.62441,2.40778 -7.23547,6.09674 -11.58732,6.04867 -4.37003,-0.0492 -8.53377,-1.92971 -14.0165,-6.94766 -5.25047,-4.80511 -8.68363,-10.25768 -14.61378,-18.7177 -3.90604,-5.57247 -9.46599,-13.36184 -16.18009,-20.35845 -4.62199,-4.81717 -12.44499,-11.02848 -24.71101,-8.99438 -13.81408,2.29061 -24.76022,12.00353 -33.84365,21.55501 -6.45968,6.79318 -15.7513,12.9759 -20.90456,13.29174 -3.51811,0.21553 -8.21073,-3.78044 -11.09844,-6.26119 -6.45368,-5.54423 -11.05684,-13.16803 -17.39589,-21.93968 -5.34753,-7.39973 -12.02736,-16.02413 -19.87375,-24.30518 -4.83227,-5.10002 -12.59537,-11.56284 -24.16503,-11.32582 z" /><path
       id="rect3100"
       style="fill:url(#linearGradient3437);fill-opacity:1;stroke:none;stroke-width:0.768858;stroke-linecap:round;stroke-linejoin:round;stroke-dasharray:none;stroke-dashoffset:3.02362"
       d="m 207.21434,462.36274 c -3.47005,0.24974 -6.44367,1.3362 -8.84777,2.75869 -4.40401,2.60593 -7.85222,5.77096 -10.61178,9.10064 -6.63748,8.00862 -10.50221,16.94697 -14.36062,26.96195 -3.3228,8.625 -4.7752,17.93397 -10.91826,24.06574 -8.9866,11.36699 -24.96698,-2.1088 -38.45447,-13.15714 -13.48768,-11.04831 -23.93048,-16.81185 -42.294701,-20.52433 -14.713654,-2.62442 -22.622163,-2.04749 -39.080876,1.59457 -16.458713,3.64205 -3.065357,8.64824 9.328823,6.81449 12.39418,-1.83375 14.192325,7.58797 3.134631,8.05426 -20.892475,0.88098 -48.5393466,13.31924 -31.131937,12.92119 17.407409,-0.39805 1.104482,4.96819 -3.751889,13.28983 -4.856371,8.32164 27.530656,-11.59736 50.467998,-8.33714 22.937158,3.26024 7.002801,7.0893 -22.102053,15.88667 -29.104855,8.79737 -1.490045,10.8645 11.592115,8.17681 13.08216,-2.68768 36.383915,-4.04947 46.966139,-2.13628 10.58223,1.91319 16.08056,7.7029 20.59018,10.69885 10.2115,6.78379 20.05664,15.35021 34.20274,12.65418 11.50102,-2.19184 18.49497,-7.24529 23.22774,-14.02289 5.8348,-8.35532 8.3515,-18.30572 11.11758,-25.86942 3.61747,-10.86619 15.30737,-35.19639 27.60144,-21.05341 12.29407,14.14298 16.04882,22.02806 21.18956,29.52282 10.04729,14.64812 16.06395,22.80586 23.57822,30.82356 4.68608,5.00021 8.63447,8.18986 12.19505,10.42894 5.43983,3.42088 8.79702,3.37882 10.16759,3.20073 1.3603,-0.17835 1.30844,-0.0557 1.26679,-0.54196 -0.0204,-0.23879 -0.07,-0.29637 -0.2558,-0.38669 -0.0146,-0.34788 -0.17569,-0.22923 -1.33256,-1.06053 -1.24447,-0.89403 -3.70323,-2.51252 -7.26222,-6.88816 -2.57207,-3.16211 -4.64623,-6.49792 -7.92546,-12.62864 -5.85255,-10.94117 -8.27468,-17.32767 -16.33933,-36.33877 -3.89678,-9.18608 -10.02755,-24.21485 -17.84436,-37.91146 -2.59887,-4.55394 -6.12098,-9.86421 -10.95601,-15.32358 -3.51977,-3.97376 -8.91159,-8.45119 -16.39464,-10.20155 -2.41954,-0.56602 -4.68098,-0.72077 -6.76277,-0.57172 z" /><path
       id="rect3167"
       style="fill:url(#linearGradient3425);fill-opacity:1;stroke:none;stroke-width:0.70443;stroke-linecap:round;stroke-linejoin:round;stroke-dasharray:none;stroke-dashoffset:3.02362"
       d="m 469.71272,712.17303 c -0.38792,0.12059 -0.43049,0.85438 -1.98706,3.53864 -0.52837,0.91088 -1.4956,2.92385 -2.21898,4.39519 -2.53975,4.0869 -5.95949,9.64181 -12.73706,18.36492 -3.56358,4.38378 -9.46681,10.97093 -14.66899,12.65841 -8.44472,2.73899 -17.62057,2.7807 -28.87246,-1.63012 -8.36872,-3.28054 -21.08165,-7.81429 -37.06776,-1.85116 -10.66945,3.97981 -18.91728,13.29554 -24.59194,22.36472 -6.27105,10.02212 -11.04036,19.46743 -16.10157,29.6759 -4.43101,8.93711 -8.99685,18.69273 -14.51808,26.26472 -4.1603,5.70564 -8.86085,11.17381 -12.71578,12.0038 -6.38332,1.37471 -11.72767,-2.41606 -15.95686,-5.1369 -8.92656,-5.75926 -16.51112,-13.39372 -25.80141,-22.41577 -7.74178,-7.51847 -16.79209,-16.77212 -27.30618,-24.3413 -3.88979,-2.80037 -8.67929,-5.47688 -14.4925,-7.53213 -4.31512,-1.52548 -10.45224,-1.9502 -18.3053,0.76721 -34.14476,14.08093 -39.597,55.72954 -59.84068,64.1146 -8.71851,3.61156 -20.6975,3.65966 -32.34099,6.80017 -11.643466,3.1406 -39.201787,9.83835 -52.879235,18.17516 -13.67763,8.33686 -2.688461,8.53063 24.777728,1.35005 27.466197,-7.18056 22.121677,1.58207 0.901133,9.26614 -21.220538,7.68409 -15.429888,18.648 14.15793,4.3892 14.327054,-6.90442 34.945824,-16.8119 30.980574,-8.49282 -3.96525,8.31907 -16.14711,14.46701 -25.60859,18.72429 -27.999234,12.59838 -1.3063,12.95715 20.84008,2.88948 22.14637,-10.06768 28.20409,-5.83391 16.96637,1.56787 -22.48907,14.81241 -8.85022,15.70804 6.85213,8.1703 37.96793,-18.22607 53.94366,-69.71894 73.74106,-73.77037 15.83076,-3.23969 41.74083,28.81289 65.96572,41.9581 4.74716,2.39802 10.07776,4.4207 16.26088,5.25591 5.14511,0.90948 11.63245,0.42442 18.52433,-3.45153 11.81466,-6.64437 19.5024,-17.65543 24.27334,-27.16374 5.82057,-11.60058 9.82583,-23.01043 13.02187,-32.33888 3.82106,-11.15205 6.30862,-19.80249 10.49909,-27.8991 3.50977,-6.78136 6.60887,-11.28459 9.61698,-13.00482 7.90496,-4.52043 18.3893,-4.00765 26.56019,-2.65242 14.34519,2.38615 27.64843,0.0242 38.53627,-6.78184 10.26417,-6.41619 15.47303,-16.88607 18.0186,-22.95775 3.9076,-8.87397 5.92389,-16.58954 7.00925,-21.65702 0.82997,-2.59739 1.42478,-4.67739 1.57907,-5.32816 0.90382,-3.81017 1.4826,-3.64537 0.41013,-3.95311 -0.0883,-0.0841 -0.25505,-0.12454 -0.53344,-0.18702 -0.0747,-0.0166 -0.0954,-0.005 -0.15425,-0.0171 -0.0804,-0.0274 -0.0897,-0.0702 -0.21679,-0.0935 -0.27574,-0.0504 -0.44626,-0.0774 -0.57605,-0.0382 z" /><path
       id="path863"
       style="fill:url(#linearGradient885);fill-opacity:1;stroke:#000000;stroke-width:8.00001;stroke-linecap:round;stroke-linejoin:round;stroke-miterlimit:4;stroke-dasharray:none"
       d="m 531.76556,514.16487 c -2.76974,1.12927 -2.98368,4.4004 -3.69936,6.88622 -2.62733,9.93068 -4.81642,20.03042 -9.72872,29.19158 -3.88654,7.29246 -9.61396,13.53134 -15.92412,18.53703 -11.99173,9.71465 -26.5684,15.25129 -39.71191,23.10995 -32.16201,18.83154 -60.5495,44.70515 -80.36687,76.41746 -4.05912,6.56019 -7.93392,13.27566 -11.11302,20.30427 -0.71097,3.62659 4.13039,6.43607 7.02649,4.2889 17.70071,-6.70398 32.78916,-18.68132 46.33865,-31.64382 14.99591,-14.08061 29.51779,-25.05378 47.30011,-35.68565 7.69256,-4.69276 15.94564,-8.35907 24.2728,-11.75914 19.65981,-8.69346 37.74837,-25.95227 49.89863,-43.88673 10.63999,-15.58059 16.42501,-34.83068 14.33334,-53.72301 0.0608,-2.71902 -2.18836,-5.77324 -5.15626,-5.21629 -7.30644,0.8384 -14.5455,1.84825 -21.82414,2.85121 -0.54586,0.11718 -1.11746,0.14215 -1.64563,0.32796 z" /><path
       id="rect860"
       style="fill:url(#linearGradient885);fill-opacity:1;stroke:#000000;stroke-width:8.00001;stroke-linecap:round;stroke-linejoin:round;stroke-miterlimit:4;stroke-dasharray:none"
       d="m 507.10676,459.26114 c -2.16185,0.54141 -3.08996,2.75824 -3.49206,4.73396 -3.32536,10.51018 -9.23051,19.96694 -15.41247,29.00836 -9.21972,13.1106 -20.21855,25.13324 -33.25731,34.52755 -6.43416,4.56397 -13.73966,8.13064 -21.61758,9.22398 -14.9872,2.46318 -30.14172,3.71673 -45.29831,5.00982 -18.61294,1.6486 -37.38738,3.43444 -55.36921,8.77768 -15.67143,4.72991 -30.6298,12.59312 -42.29656,24.21253 -1.95314,1.97794 -4.17548,3.87441 -5.44341,6.37671 -1.04957,3.32676 3.27596,6.41777 6.1515,4.54295 21.4656,-7.4891 40.10171,-9.10095 62.70615,-11.64855 23.80642,-2.589 47.72326,-3.50739 71.65579,-3.53174 14.22927,-0.61963 31.66708,-8.23091 44.07163,-14.8632 16.15566,-8.87636 30.97495,-20.13532 44.13761,-33.0235 7.76191,-7.73955 15.02644,-16.15465 20.34059,-25.78898 1.57234,-3.08865 3.14603,-6.33727 3.53907,-9.80371 -0.36076,-3.2664 -3.6305,-4.8135 -5.55871,-7.08997 -7.11384,-6.79976 -14.15267,-13.68557 -21.34572,-20.39742 -1.04912,-0.67693 -2.35608,-0.53579 -3.511,-0.26647 z" /><path
       id="path877"
       style="fill:url(#linearGradient893);fill-opacity:1;stroke:#000000;stroke-width:8.00001;stroke-linecap:round;stroke-linejoin:round;stroke-miterlimit:4;stroke-dasharray:none"
       d="m 578.42799,330.80135 c -3.81894,0.98722 -8.1213,1.55541 -11.06201,4.42349 -2.79755,3.37591 -1.91031,8.16021 -0.5543,11.94905 3.30305,9.47539 9.18315,17.74498 14.91723,25.87734 12.18227,16.66598 26.11577,32.05106 41.41346,45.90906 6.78699,6.04152 14.0061,11.77679 22.19711,15.79824 3.29322,1.5703 6.97463,2.22733 10.60326,1.97159 4.10835,0.28116 7.95595,2.36725 11.0783,4.52402 9.89971,6.67132 17.10992,16.57518 27.16223,23.0412 3.31547,2.01312 7.98764,2.81659 11.17238,0.11443 4.44931,-3.60689 5.60354,-9.72632 5.64246,-15.1634 -0.003,-9.71281 -3.57818,-18.96221 -7.36428,-27.75536 -7.95683,-17.69785 -18.99416,-33.80578 -30.74292,-49.17385 -4.94538,-6.27933 -9.91388,-12.59621 -15.66071,-18.16973 -16.71082,-15.75003 -39.6468,-24.06178 -62.4458,-24.62615 -5.47826,-0.12342 -10.96852,0.26611 -16.35641,1.28007 z" /><path
       id="path879"
       style="fill:url(#linearGradient885);fill-opacity:1;stroke:#000000;stroke-width:10;stroke-linecap:round;stroke-linejoin:round;stroke-miterlimit:4;stroke-dasharray:none"
       d="m 685.6437,293.29686 c -22.77377,4.68757 -44.28466,14.52383 -63.63747,27.28749 -9.91566,6.69011 -19.39802,14.4388 -26.28403,24.32219 -2.23051,3.67445 -4.34653,7.57532 -7.8353,10.23081 -7.09513,6.02982 -15.30646,10.52522 -23.16359,15.45694 -16.80293,10.2319 -33.9571,20.58209 -47.4258,35.15194 -9.54506,10.36561 -16.89725,23.32629 -18.42607,37.51584 -0.37829,3.21519 -0.50093,6.4619 -0.34999,9.69605 -13.60669,1.66922 -24.79701,2.13636 -38.5634,1.95883 -11.67412,0.10949 -23.13503,-2.42343 -34.47429,-4.90677 -23.67456,-4.78501 -48.06548,-7.43921 -72.16713,-4.67472 -15.23291,1.85529 -32.62046,10.35487 -44.92532,19.83411 -2.34996,1.93399 -4.86289,3.80025 -6.66161,6.27902 -1.4503,3.41807 2.73749,7.33153 6.04104,5.62239 22.08719,-4.17987 44.97247,-5.31679 67.27461,-1.71054 23.66503,3.65795 46.66252,10.63053 70.26781,14.60237 18.58117,3.26171 37.73057,5.20088 56.47154,2.0943 1.50253,-0.26282 3.00083,-0.55461 4.48368,-0.91295 3.01143,11.36025 10.1744,21.63956 20.09114,28.0235 7.50864,5.05823 13.82094,9.03756 20.40212,15.37402 5.76248,5.20125 10.40121,12.17461 11.06674,20.07859 0.97414,8.2262 1.21852,16.54836 1.43233,24.85993 0.29211,19.78428 0.0848,34.13434 -5.57477,53.2191 -1.5166,4.77446 -3.78732,10.88258 -7.4767,14.46433 -4.95721,5.12252 -10.08768,9.1402 -16.17468,12.56502 -16.46516,8.90438 -34.02286,20.35751 -48.32841,32.70395 -9.37801,8.04135 -16.98942,18.4486 -20.50289,30.38425 -0.95325,2.10938 -0.28518,5.05195 2.07653,5.86835 1.98918,1.0131 4.3871,0.16256 5.78813,-1.4262 14.97846,-10.79209 32.34513,-17.3635 49.52898,-23.68883 16.29086,-6.03743 33.09737,-11.71675 47.21696,-22.14474 10.21402,-7.58246 17.95484,-18.45126 21.60861,-30.65154 5.674,-16.92439 7.6043,-34.80019 9.00029,-52.50829 0.98724,-14.59602 1.346,-29.27652 0.2388,-43.87483 -0.42045,-3.92195 -0.7193,-8.53177 2.22186,-11.61996 1.6758,-1.7897 4.10457,-2.02035 5.99177,-3.38913 2.89829,-1.35889 5.86639,-2.58602 8.6079,-4.26301 15.70817,-9.05956 27.62156,-23.52128 36.27824,-39.24391 5.66217,-10.27268 9.7442,-21.32501 13.20647,-32.50235 3.92798,-10.0327 10.20622,-18.65387 16.86938,-27.13114 18.02051,-23.06074 39.15458,-43.68997 55.11509,-68.34022 6.67381,-10.47792 12.47173,-22.11881 13.14414,-34.73537 0.39022,-9.03703 -2.88657,-18.14628 -8.97741,-24.83967 -8.69698,-10.22762 -21.91835,-16.25584 -35.30085,-16.54769 -6.09229,-0.27436 -12.19387,0.38142 -18.17445,1.51856 z" /><path
       id="path847"
       style="fill:url(#linearGradient855);fill-opacity:1;stroke:#000000;stroke-width:10;stroke-linecap:round;stroke-linejoin:round;stroke-dasharray:none"
       d="m 619.74053,415.7748 c -4.94118,-1.83836 -10.46313,-1.94643 -15.59216,-0.58721 -8.00185,2.05622 -14.97271,6.98579 -20.72272,12.75905 -9.08977,9.35781 -15.42952,21.15137 -18.7463,33.59052 -2.58289,9.86814 -3.34646,20.37077 -0.84682,30.2511 1.64871,6.51994 4.97744,12.78414 10.33621,17.02825 4.14969,3.22731 9.44321,4.97238 14.77652,4.84523 7.53092,-0.13096 14.70438,-3.41586 20.69226,-7.83678 8.99917,-6.73157 15.81272,-16.00731 20.5554,-26.01957 5.7482,-12.22988 8.63969,-26.01911 6.66054,-39.33751 -1.32836,-8.67037 -5.23175,-17.49108 -12.80268,-22.4806 -1.3488,-0.88595 -2.79458,-1.63558 -4.31025,-2.21248 z" /><ellipse
       style="fill:#000000;fill-opacity:1;stroke:#000000;stroke-width:9.32027;stroke-linecap:round;stroke-linejoin:round"
       id="ellipse849"
       cx="727.08496"
       cy="228.4381"
       rx="10.167763"
       ry="15.664717"
       transform="matrix(0.93237999,0.36147966,-0.38227464,0.92404876,0,0)" /><path
       id="path881"
       style="display:inline;fill:url(#linearGradient885);fill-opacity:1;stroke:url(#linearGradient3445);stroke-width:10.0846;stroke-linecap:round;stroke-linejoin:round;stroke-miterlimit:4;stroke-dasharray:none"
       d="M 574.65479,332.74945 C 615.69693,332.47668 708.88385,219.28164 773.03023,173.43771 837.17661,127.5938 965.57758,70.807972 1000.1229,38.430965 1011.4666,53.632405 946.12752,166.6382 867.84573,267.6329 801.57899,353.12646 710.38416,432.43426 709.49772,454.63263 c 2.11261,-13.44167 -22.03524,-52.45985 -59.55141,-75.40444 -27.54819,-16.84821 -45.80203,-54.2617 -75.29152,-46.47874 z" /></g></svg>
