<?xml version="1.0" encoding="UTF-8" standalone="no"?>
<svg
   xmlns:dc="http://purl.org/dc/elements/1.1/"
   xmlns:cc="http://creativecommons.org/ns#"
   xmlns:rdf="http://www.w3.org/1999/02/22-rdf-syntax-ns#"
   xmlns:svg="http://www.w3.org/2000/svg"
   xmlns="http://www.w3.org/2000/svg"
   xmlns:sodipodi="http://sodipodi.sourceforge.net/DTD/sodipodi-0.dtd"
   xmlns:inkscape="http://www.inkscape.org/namespaces/inkscape"
   width="32"
   height="32"
   viewBox="0 0 32 32"
   id="svg2"
   version="1.1"
   inkscape:version="0.91 r13725"
   sodipodi:docname="invisibleEye.svg"
   inkscape:export-xdpi="300"
   inkscape:export-ydpi="300">
  <metadata
     id="metadata10">
    <rdf:RDF>
      <cc:Work
         rdf:about="">
        <dc:format>image/svg+xml</dc:format>
        <dc:type
           rdf:resource="http://purl.org/dc/dcmitype/StillImage" />
        <dc:title></dc:title>
      </cc:Work>
    </rdf:RDF>
  </metadata>
  <defs
     id="defs8" />
  <sodipodi:namedview
     pagecolor="#ffffff"
     bordercolor="#666666"
     borderopacity="1"
     objecttolerance="10"
     gridtolerance="10"
     guidetolerance="10"
     inkscape:pageopacity="0"
     inkscape:pageshadow="2"
     inkscape:window-width="1855"
     inkscape:window-height="1056"
     id="namedview6"
     showgrid="false"
     inkscape:zoom="11.313709"
     inkscape:cx="32.40221"
     inkscape:cy="-1.8026507"
     inkscape:window-x="65"
     inkscape:window-y="24"
     inkscape:window-maximized="1"
     inkscape:current-layer="svg2" />
  <g
     id="g4823"
     inkscape:export-xdpi="300"
     inkscape:export-ydpi="300"
     transform="matrix(1.3011758,0,0,1.3175188,0.25361903,0.12274439)">
    <rect
       y="0.40677965"
       x="0.30508474"
       height="23.288136"
       width="23.59322"
       id="rect4138"
       style="fill:#ffffff;fill-opacity:1;stroke:#2c6c90;stroke-width:1;stroke-miterlimit:4;stroke-dasharray:none;stroke-opacity:1" />
    <ellipse
       ry="1.573068"
       rx="3.6511929"
       cy="11.4375"
       cx="12.140625"
       id="path4198"
       style="fill:#2c6c90;fill-opacity:1;stroke:#2c6c90;stroke-width:0.91636413;stroke-miterlimit:4;stroke-dasharray:none;stroke-opacity:1" />
    <path
       sodipodi:nodetypes="cscccccscssssssccccsccscc"
       inkscape:connector-curvature="0"
       style="fill:#2c6c90;fill-opacity:1;fill-rule:evenodd;stroke:#2c6c90;stroke-width:0;stroke-miterlimit:4;stroke-dasharray:none;stroke-opacity:1"
       id="path4"
       d="m 8.6715201,17.080139 c 1.0521449,0.453004 2.1894259,0.698358 3.3632979,0.698358 3.690918,0 7.020113,-2.425624 8.47849,-6.104757 -0.649912,-1.639573 -1.671361,-3.0302023 -2.930787,-4.068156 -4.90545,5.220041 -5.550541,5.818812 -8.9110009,9.474555 z M 18.946736,6.1550929 c 1.638602,1.4150865 2.905626,3.322301 3.614424,5.5186471 -1.531105,4.744416 -5.667,8.139677 -10.526342,8.139677 -1.723817,0 -3.3565943,-0.427269 -4.8143441,-1.190462 l -1.7681422,1.879963 c -0.3737085,0.397342 -0.9796094,0.397342 -1.3533178,0 -0.3737083,-0.397341 -0.3737083,-1.041562 0,-1.438905 L 18.985511,3.2360555 c 0.373708,-0.3973428 0.979609,-0.3973428 1.353318,0 0.373708,0.3973426 0.373708,1.0415625 0,1.438905 z M 5.4511908,14.748511 4.0968206,16.188535 C 2.953543,14.923646 2.0612502,13.38662 1.5084746,11.67374 3.0395788,6.9293251 7.1754744,3.5340623 12.034818,3.5340623 c 1.191472,0 2.339452,0.2041205 3.416205,0.5822001 l -1.56112,1.6598495 C 13.287168,5.6399817 12.666286,5.5689817 12.034818,5.5689817 c -3.6909194,0 -7.0201146,2.4256237 -8.4784913,6.1047583 0.4607503,1.162362 1.1082345,2.199605 1.8948641,3.074771 z" />
  </g>
  <rect
     style="fill:none;fill-opacity:1;stroke:#2c6c90;stroke-width:0;stroke-miterlimit:4;stroke-dasharray:none;stroke-opacity:1"
     id="rect4148"
     width="14.338983"
     height="7.2203388"
     x="16.576271"
     y="-5.0169487" />
</svg>
